  0
SECTION
  2
BLOCKS
  0
ENDSEC
  0
SECTION
  2
ENTITIES
  0
LINE
  8
0
 10
58.0902
 20
0.489426
 11
60
 21
1.33974
  0
LINE
  8
0
 10
60
 20
1.33974
 11
61.6913
 21
2.56854
  0
LINE
  8
0
 10
61.6913
 20
2.56854
 11
63.0902
 21
4.12215
  0
LINE
  8
0
 10
63.0902
 20
4.12215
 11
64.1355
 21
5.93263
  0
LINE
  8
0
 10
64.1355
 20
5.93263
 11
119.135
 21
140.933
  0
LINE
  8
0
 10
119.135
 20
140.933
 11
119.781
 21
142.921
  0
LINE
  8
0
 10
119.781
 20
142.921
 11
120
 21
145
  0
LINE
  8
0
 10
120
 20
145
 11
119.781
 21
147.079
  0
LINE
  8
0
 10
119.781
 20
147.079
 11
119.135
 21
149.067
  0
LINE
  8
0
 10
119.135
 20
149.067
 11
118.09
 21
150.878
  0
LINE
  8
0
 10
118.09
 20
150.878
 11
116.691
 21
152.431
  0
LINE
  8
0
 10
116.691
 20
152.431
 11
115
 21
153.66
  0
LINE
  8
0
 10
115
 20
153.66
 11
113.09
 21
154.511
  0
LINE
  8
0
 10
113.09
 20
154.511
 11
111.045
 21
154.945
  0
LINE
  8
0
 10
111.045
 20
154.945
 11
8.95471
 21
154.945
  0
LINE
  8
0
 10
8.95471
 20
154.945
 11
6.90982
 21
154.511
  0
LINE
  8
0
 10
6.90982
 20
154.511
 11
5
 21
153.66
  0
LINE
  8
0
 10
5
 20
153.66
 11
3.30869
 21
152.431
  0
LINE
  8
0
 10
3.30869
 20
152.431
 11
1.90982
 21
150.878
  0
LINE
  8
0
 10
1.90982
 20
150.878
 11
0.864532
 21
149.067
  0
LINE
  8
0
 10
0.864532
 20
149.067
 11
0.218521
 21
147.079
  0
LINE
  8
0
 10
0.218521
 20
147.079
 11
0
 21
145
  0
LINE
  8
0
 10
0
 20
145
 11
0
 21
10
  0
LINE
  8
0
 10
0
 20
10
 11
0.218521
 21
7.92088
  0
LINE
  8
0
 10
0.218521
 20
7.92088
 11
0.864532
 21
5.93263
  0
LINE
  8
0
 10
0.864532
 20
5.93263
 11
1.90982
 21
4.12215
  0
LINE
  8
0
 10
1.90982
 20
4.12215
 11
3.30869
 21
2.56854
  0
LINE
  8
0
 10
3.30869
 20
2.56854
 11
4.99998
 21
1.33974
  0
LINE
  8
0
 10
4.99998
 20
1.33974
 11
6.90982
 21
0.489426
  0
LINE
  8
0
 10
6.90982
 20
0.489426
 11
8.95471
 21
0.0547791
  0
LINE
  8
0
 10
8.95471
 20
0.0547791
 11
56.0453
 21
0.0547791
  0
LINE
  8
0
 10
56.0453
 20
0.0547791
 11
58.0902
 21
0.489426
  0
LINE
  8
0
 10
2
 20
10
 11
2
 21
144
  0
LINE
  8
0
 10
2
 20
144
 11
32
 21
144
  0
LINE
  8
0
 10
32
 20
144
 11
32
 21
10
  0
LINE
  8
0
 10
32
 20
10
 11
2
 21
10
  0
LINE
  8
0
 10
17.0831
 20
117.415
 11
17.2209
 21
117.428
  0
LINE
  8
0
 10
17.2209
 20
117.428
 11
17.3571
 21
117.453
  0
LINE
  8
0
 10
17.3571
 20
117.453
 11
17.4906
 21
117.49
  0
LINE
  8
0
 10
17.4906
 20
117.49
 11
17.6203
 21
117.539
  0
LINE
  8
0
 10
17.6203
 20
117.539
 11
17.7453
 21
117.598
  0
LINE
  8
0
 10
17.7453
 20
117.598
 11
17.8646
 21
117.669
  0
LINE
  8
0
 10
17.8646
 20
117.669
 11
17.9774
 21
117.749
  0
LINE
  8
0
 10
17.9774
 20
117.749
 11
18.0827
 21
117.839
  0
LINE
  8
0
 10
18.0827
 20
117.839
 11
18.1797
 21
117.938
  0
LINE
  8
0
 10
18.1797
 20
117.938
 11
18.2678
 21
118.045
  0
LINE
  8
0
 10
18.2678
 20
118.045
 11
18.3463
 21
118.159
  0
LINE
  8
0
 10
18.3463
 20
118.159
 11
18.4145
 21
118.279
  0
LINE
  8
0
 10
18.4145
 20
118.279
 11
18.4719
 21
118.405
  0
LINE
  8
0
 10
18.4719
 20
118.405
 11
18.5181
 21
118.536
  0
LINE
  8
0
 10
18.5181
 20
118.536
 11
18.5528
 21
118.67
  0
LINE
  8
0
 10
18.5528
 20
118.67
 11
18.5757
 21
118.807
  0
LINE
  8
0
 10
18.5757
 20
118.807
 11
18.5865
 21
118.945
  0
LINE
  8
0
 10
18.5865
 20
118.945
 11
18.5853
 21
119.083
  0
LINE
  8
0
 10
18.5853
 20
119.083
 11
18.572
 21
119.221
  0
LINE
  8
0
 10
18.572
 20
119.221
 11
18.5468
 21
119.357
  0
LINE
  8
0
 10
18.5468
 20
119.357
 11
18.5098
 21
119.491
  0
LINE
  8
0
 10
18.5098
 20
119.491
 11
18.4613
 21
119.62
  0
LINE
  8
0
 10
18.4613
 20
119.62
 11
18.4017
 21
119.745
  0
LINE
  8
0
 10
18.4017
 20
119.745
 11
18.3314
 21
119.865
  0
LINE
  8
0
 10
18.3314
 20
119.865
 11
18.251
 21
119.977
  0
LINE
  8
0
 10
18.251
 20
119.977
 11
18.161
 21
120.083
  0
LINE
  8
0
 10
18.161
 20
120.083
 11
18.0622
 21
120.18
  0
LINE
  8
0
 10
18.0622
 20
120.18
 11
17.9554
 21
120.268
  0
LINE
  8
0
 10
17.9554
 20
120.268
 11
17.8412
 21
120.346
  0
LINE
  8
0
 10
17.8412
 20
120.346
 11
17.7207
 21
120.414
  0
LINE
  8
0
 10
17.7207
 20
120.414
 11
17.5947
 21
120.472
  0
LINE
  8
0
 10
17.5947
 20
120.472
 11
17.4641
 21
120.518
  0
LINE
  8
0
 10
17.4641
 20
120.518
 11
17.33
 21
120.553
  0
LINE
  8
0
 10
17.33
 20
120.553
 11
17.1935
 21
120.576
  0
LINE
  8
0
 10
17.1935
 20
120.576
 11
17.0554
 21
120.587
  0
LINE
  8
0
 10
17.0554
 20
120.587
 11
16.9169
 21
120.585
  0
LINE
  8
0
 10
16.9169
 20
120.585
 11
16.7791
 21
120.572
  0
LINE
  8
0
 10
16.7791
 20
120.572
 11
16.6429
 21
120.547
  0
LINE
  8
0
 10
16.6429
 20
120.547
 11
16.5094
 21
120.51
  0
LINE
  8
0
 10
16.5094
 20
120.51
 11
16.3797
 21
120.461
  0
LINE
  8
0
 10
16.3797
 20
120.461
 11
16.2547
 21
120.402
  0
LINE
  8
0
 10
16.2547
 20
120.402
 11
16.1354
 21
120.331
  0
LINE
  8
0
 10
16.1354
 20
120.331
 11
16.0226
 21
120.251
  0
LINE
  8
0
 10
16.0226
 20
120.251
 11
15.9173
 21
120.161
  0
LINE
  8
0
 10
15.9173
 20
120.161
 11
15.8203
 21
120.062
  0
LINE
  8
0
 10
15.8203
 20
120.062
 11
15.7322
 21
119.955
  0
LINE
  8
0
 10
15.7322
 20
119.955
 11
15.6537
 21
119.841
  0
LINE
  8
0
 10
15.6537
 20
119.841
 11
15.5855
 21
119.721
  0
LINE
  8
0
 10
15.5855
 20
119.721
 11
15.5281
 21
119.595
  0
LINE
  8
0
 10
15.5281
 20
119.595
 11
15.4819
 21
119.464
  0
LINE
  8
0
 10
15.4819
 20
119.464
 11
15.4472
 21
119.33
  0
LINE
  8
0
 10
15.4472
 20
119.33
 11
15.4243
 21
119.193
  0
LINE
  8
0
 10
15.4243
 20
119.193
 11
15.4135
 21
119.055
  0
LINE
  8
0
 10
15.4135
 20
119.055
 11
15.4147
 21
118.917
  0
LINE
  8
0
 10
15.4147
 20
118.917
 11
15.428
 21
118.779
  0
LINE
  8
0
 10
15.428
 20
118.779
 11
15.4532
 21
118.643
  0
LINE
  8
0
 10
15.4532
 20
118.643
 11
15.4902
 21
118.509
  0
LINE
  8
0
 10
15.4902
 20
118.509
 11
15.5387
 21
118.38
  0
LINE
  8
0
 10
15.5387
 20
118.38
 11
15.5983
 21
118.255
  0
LINE
  8
0
 10
15.5983
 20
118.255
 11
15.6686
 21
118.135
  0
LINE
  8
0
 10
15.6686
 20
118.135
 11
15.749
 21
118.023
  0
LINE
  8
0
 10
15.749
 20
118.023
 11
15.839
 21
117.917
  0
LINE
  8
0
 10
15.839
 20
117.917
 11
15.9378
 21
117.82
  0
LINE
  8
0
 10
15.9378
 20
117.82
 11
16.0446
 21
117.732
  0
LINE
  8
0
 10
16.0446
 20
117.732
 11
16.1588
 21
117.654
  0
LINE
  8
0
 10
16.1588
 20
117.654
 11
16.2793
 21
117.586
  0
LINE
  8
0
 10
16.2793
 20
117.586
 11
16.4053
 21
117.528
  0
LINE
  8
0
 10
16.4053
 20
117.528
 11
16.5359
 21
117.482
  0
LINE
  8
0
 10
16.5359
 20
117.482
 11
16.67
 21
117.447
  0
LINE
  8
0
 10
16.67
 20
117.447
 11
16.8065
 21
117.424
  0
LINE
  8
0
 10
16.8065
 20
117.424
 11
16.9446
 21
117.413
  0
LINE
  8
0
 10
16.9446
 20
117.413
 11
17.0831
 21
117.415
  0
LINE
  8
0
 10
17.0831
 20
33.4147
 11
17.2209
 21
33.428
  0
LINE
  8
0
 10
17.2209
 20
33.428
 11
17.3571
 21
33.4532
  0
LINE
  8
0
 10
17.3571
 20
33.4532
 11
17.4906
 21
33.4902
  0
LINE
  8
0
 10
17.4906
 20
33.4902
 11
17.6203
 21
33.5387
  0
LINE
  8
0
 10
17.6203
 20
33.5387
 11
17.7453
 21
33.5983
  0
LINE
  8
0
 10
17.7453
 20
33.5983
 11
17.8646
 21
33.6686
  0
LINE
  8
0
 10
17.8646
 20
33.6686
 11
17.9774
 21
33.749
  0
LINE
  8
0
 10
17.9774
 20
33.749
 11
18.0827
 21
33.839
  0
LINE
  8
0
 10
18.0827
 20
33.839
 11
18.1797
 21
33.9378
  0
LINE
  8
0
 10
18.1797
 20
33.9378
 11
18.2678
 21
34.0446
  0
LINE
  8
0
 10
18.2678
 20
34.0446
 11
18.3463
 21
34.1588
  0
LINE
  8
0
 10
18.3463
 20
34.1588
 11
18.4145
 21
34.2793
  0
LINE
  8
0
 10
18.4145
 20
34.2793
 11
18.4719
 21
34.4053
  0
LINE
  8
0
 10
18.4719
 20
34.4053
 11
18.5181
 21
34.5359
  0
LINE
  8
0
 10
18.5181
 20
34.5359
 11
18.5528
 21
34.67
  0
LINE
  8
0
 10
18.5528
 20
34.67
 11
18.5757
 21
34.8065
  0
LINE
  8
0
 10
18.5757
 20
34.8065
 11
18.5865
 21
34.9446
  0
LINE
  8
0
 10
18.5865
 20
34.9446
 11
18.5853
 21
35.0831
  0
LINE
  8
0
 10
18.5853
 20
35.0831
 11
18.572
 21
35.2209
  0
LINE
  8
0
 10
18.572
 20
35.2209
 11
18.5468
 21
35.3571
  0
LINE
  8
0
 10
18.5468
 20
35.3571
 11
18.5098
 21
35.4906
  0
LINE
  8
0
 10
18.5098
 20
35.4906
 11
18.4613
 21
35.6203
  0
LINE
  8
0
 10
18.4613
 20
35.6203
 11
18.4017
 21
35.7453
  0
LINE
  8
0
 10
18.4017
 20
35.7453
 11
18.3314
 21
35.8646
  0
LINE
  8
0
 10
18.3314
 20
35.8646
 11
18.251
 21
35.9774
  0
LINE
  8
0
 10
18.251
 20
35.9774
 11
18.161
 21
36.0827
  0
LINE
  8
0
 10
18.161
 20
36.0827
 11
18.0622
 21
36.1797
  0
LINE
  8
0
 10
18.0622
 20
36.1797
 11
17.9554
 21
36.2678
  0
LINE
  8
0
 10
17.9554
 20
36.2678
 11
17.8412
 21
36.3463
  0
LINE
  8
0
 10
17.8412
 20
36.3463
 11
17.7207
 21
36.4145
  0
LINE
  8
0
 10
17.7207
 20
36.4145
 11
17.5947
 21
36.4719
  0
LINE
  8
0
 10
17.5947
 20
36.4719
 11
17.4641
 21
36.5181
  0
LINE
  8
0
 10
17.4641
 20
36.5181
 11
17.33
 21
36.5528
  0
LINE
  8
0
 10
17.33
 20
36.5528
 11
17.1935
 21
36.5757
  0
LINE
  8
0
 10
17.1935
 20
36.5757
 11
17.0554
 21
36.5865
  0
LINE
  8
0
 10
17.0554
 20
36.5865
 11
16.9169
 21
36.5853
  0
LINE
  8
0
 10
16.9169
 20
36.5853
 11
16.7791
 21
36.5721
  0
LINE
  8
0
 10
16.7791
 20
36.5721
 11
16.6429
 21
36.5468
  0
LINE
  8
0
 10
16.6429
 20
36.5468
 11
16.5094
 21
36.5098
  0
LINE
  8
0
 10
16.5094
 20
36.5098
 11
16.3797
 21
36.4613
  0
LINE
  8
0
 10
16.3797
 20
36.4613
 11
16.2547
 21
36.4017
  0
LINE
  8
0
 10
16.2547
 20
36.4017
 11
16.1354
 21
36.3314
  0
LINE
  8
0
 10
16.1354
 20
36.3314
 11
16.0226
 21
36.251
  0
LINE
  8
0
 10
16.0226
 20
36.251
 11
15.9173
 21
36.161
  0
LINE
  8
0
 10
15.9173
 20
36.161
 11
15.8203
 21
36.0623
  0
LINE
  8
0
 10
15.8203
 20
36.0623
 11
15.7322
 21
35.9554
  0
LINE
  8
0
 10
15.7322
 20
35.9554
 11
15.6537
 21
35.8412
  0
LINE
  8
0
 10
15.6537
 20
35.8412
 11
15.5855
 21
35.7207
  0
LINE
  8
0
 10
15.5855
 20
35.7207
 11
15.5281
 21
35.5947
  0
LINE
  8
0
 10
15.5281
 20
35.5947
 11
15.4819
 21
35.4641
  0
LINE
  8
0
 10
15.4819
 20
35.4641
 11
15.4472
 21
35.3301
  0
LINE
  8
0
 10
15.4472
 20
35.3301
 11
15.4243
 21
35.1935
  0
LINE
  8
0
 10
15.4243
 20
35.1935
 11
15.4135
 21
35.0554
  0
LINE
  8
0
 10
15.4135
 20
35.0554
 11
15.4147
 21
34.9169
  0
LINE
  8
0
 10
15.4147
 20
34.9169
 11
15.428
 21
34.7791
  0
LINE
  8
0
 10
15.428
 20
34.7791
 11
15.4532
 21
34.6429
  0
LINE
  8
0
 10
15.4532
 20
34.6429
 11
15.4902
 21
34.5094
  0
LINE
  8
0
 10
15.4902
 20
34.5094
 11
15.5387
 21
34.3797
  0
LINE
  8
0
 10
15.5387
 20
34.3797
 11
15.5983
 21
34.2547
  0
LINE
  8
0
 10
15.5983
 20
34.2547
 11
15.6686
 21
34.1354
  0
LINE
  8
0
 10
15.6686
 20
34.1354
 11
15.749
 21
34.0226
  0
LINE
  8
0
 10
15.749
 20
34.0226
 11
15.839
 21
33.9173
  0
LINE
  8
0
 10
15.839
 20
33.9173
 11
15.9378
 21
33.8203
  0
LINE
  8
0
 10
15.9378
 20
33.8203
 11
16.0446
 21
33.7322
  0
LINE
  8
0
 10
16.0446
 20
33.7322
 11
16.1588
 21
33.6537
  0
LINE
  8
0
 10
16.1588
 20
33.6537
 11
16.2793
 21
33.5855
  0
LINE
  8
0
 10
16.2793
 20
33.5855
 11
16.4053
 21
33.5281
  0
LINE
  8
0
 10
16.4053
 20
33.5281
 11
16.5359
 21
33.4819
  0
LINE
  8
0
 10
16.5359
 20
33.4819
 11
16.67
 21
33.4472
  0
LINE
  8
0
 10
16.67
 20
33.4472
 11
16.8065
 21
33.4243
  0
LINE
  8
0
 10
16.8065
 20
33.4243
 11
16.9446
 21
33.4135
  0
LINE
  8
0
 10
16.9446
 20
33.4135
 11
17.0831
 21
33.4147
  0
ENDSEC
  0
SECTION
  2
OBJECTS
  0
DICTIONARY
  0
ENDSEC
  0
EOF
