<?xml version="1.0" standalone="no"?>
<!DOCTYPE svg PUBLIC "-//W3C//DTD SVG 1.1//EN" "http://www.w3.org/Graphics/SVG/1.1/DTD/svg11.dtd">
<svg width="116mm" height="236mm" viewBox="-3 -228 116 236" xmlns="http://www.w3.org/2000/svg" version="1.1">
<title>OpenSCAD Model</title>
<path d="
M -3,-15 L -2.99026,-14.721 L -2.98056,-14.4433 L -2.97564,-14.3024 L -2.96833,-14.0932 L -2.95006,-13.9193
 L -2.92577,-13.6882 L -2.89786,-13.4227 L -2.89537,-13.399 L -2.87348,-13.1908 L -2.83712,-12.9845 L -2.79565,-12.7493
 L -2.7514,-12.4984 L -2.71592,-12.2971 L -2.70581,-12.2566 L -2.6481,-12.0251 L -2.59324,-11.8051 L -2.54706,-11.6199
 L -2.4964,-11.4167 L -2.43169,-11.2176 L -2.42446,-11.1953 L -2.36145,-11.0014 L -2.30313,-10.8219 L -2.27354,-10.7308
 L -2.216,-10.5537 L -2.15759,-10.4092 L -2.14531,-10.3788 L -2.09943,-10.2652 L -2.02099,-10.0711 L -2.02099,-10.0711
 L -1.95453,-9.90657 L -1.87609,-9.71242 L -1.57011,-9.08507 L -1.47832,-8.89687 L -1.37362,-8.71553 L -1.02462,-8.11105
 L -0.907532,-7.93745 L -0.517221,-7.35879 L -0.0874958,-6.80877 L 0.0414219,-6.64376 L 0.181536,-6.48815 L 0.648582,-5.96944
 L 1.15067,-5.48458 L 1.3013,-5.33912 L 1.46171,-5.20452 L 1.9964,-4.75586 L 2.56109,-4.34559 L 2.73049,-4.22251
 L 2.90807,-4.11155 L 3.5,-3.74167 L 4.11629,-3.41398 L 4.30118,-3.31568 L 4.49247,-3.23051 L 5.13011,-2.94661
 L 30.1301,7.05339 L 30.3269,7.12501 L 30.9828,7.36373 L 31.6537,7.55613 L 31.855,7.61384 L 32.0598,7.65738
 L 32.7426,7.8025 L 32.9499,7.83164 L 33.6411,7.92878 L 34.3374,7.97747 L 34.5463,7.99208 L 35.4537,7.99208
 L 35.6626,7.97747 L 36.3589,7.92878 L 37.0501,7.83164 L 37.2574,7.8025 L 37.9402,7.65738 L 38.145,7.61384
 L 38.3463,7.55613 L 39.0172,7.36373 L 39.6731,7.12501 L 39.8699,7.05339 L 40.5075,6.76949 L 40.6988,6.68432
 L 40.8837,6.58602 L 41.5,6.25833 L 42.0919,5.88845 L 42.2695,5.77749 L 42.4389,5.65441 L 43.0036,5.24414
 L 43.5383,4.79548 L 43.6987,4.66088 L 43.8493,4.51542 L 44.3514,4.03056 L 44.8185,3.51185 L 44.9586,3.35624
 L 45.0875,3.19123 L 45.5172,2.64121 L 51.7406,-5.91589 L 51.8577,-6.08949 L 51.9624,-6.27083 L 52.0541,-6.45904
 L 52.1326,-6.65318 L 52.1973,-6.85233 L 52.248,-7.05551 L 52.2843,-7.26173 L 52.3062,-7.46998 L 52.3135,-7.67924
 L 52.3062,-7.88851 L 52.2843,-8.09676 L 52.248,-8.30298 L 52.1973,-8.50616 L 52.1326,-8.70531 L 52.0541,-8.89945
 L 51.9624,-9.08766 L 51.8577,-9.269 L 51.7406,-9.4426 L 51.6116,-9.60761 L 51.4715,-9.76322 L 51.3209,-9.90868
 L 51.1605,-10.0433 L 50.9911,-10.1664 L 50.8135,-10.2773 L 50.6286,-10.3756 L 50.4373,-10.4608 L 50.2406,-10.5324
 L 39.691,-14.0489 L 39.6254,-14.0728 L 39.5616,-14.1012 L 39.5,-14.134 L 39.4408,-14.171 L 39.3843,-14.212
 L 39.3309,-14.2569 L 39.2807,-14.3053 L 39.2339,-14.3572 L 39.191,-14.4122 L 39.152,-14.4701 L 39.1171,-14.5305
 L 39.0865,-14.5933 L 39.0603,-14.658 L 39.0387,-14.7244 L 39.0219,-14.7921 L 39.0097,-14.8608 L 39.0024,-14.9302
 L 39,-15 L 39.0024,-15.0698 L 39.0097,-15.1392 L 39.0219,-15.2079 L 39.0387,-15.2756 L 39.0603,-15.342
 L 39.0865,-15.4068 L 49.9941,-41.8968 L 51.791,-46.2605 L 53.7132,-50.9289 L 55.7515,-55.8791 L 57.896,-61.0871
 L 60.1361,-66.5274 L 62.461,-72.1735 L 64.8593,-77.998 L 67.3194,-83.9724 L 69.8292,-90.0677 L 72.3766,-96.2542
 L 74.9491,-102.502 L 80.1193,-115.058 L 82.6918,-121.305 L 85.2391,-127.492 L 87.749,-133.587 L 90.209,-139.562
 L 92.6074,-145.386 L 94.9322,-151.032 L 95.6558,-152.79 L 95.6879,-152.867 L 95.7519,-153.023 L 95.8475,-153.255
 L 95.9743,-153.563 L 96.1316,-153.945 L 96.3186,-154.399 L 96.5345,-154.923 L 96.7782,-155.515 L 97.0485,-156.172
 L 97.344,-156.889 L 97.6635,-157.665 L 98.0052,-158.495 L 98.3676,-159.375 L 98.7488,-160.301 L 99.1471,-161.268
 L 99.5604,-162.272 L 99.9868,-163.307 L 100.424,-164.37 L 100.87,-165.453 L 101.323,-166.553 L 101.78,-167.664
 L 102.24,-168.78 L 102.7,-169.896 L 103.157,-171.007 L 103.61,-172.106 L 104.056,-173.19 L 104.493,-174.252
 L 104.92,-175.288 L 105.333,-176.291 L 105.731,-177.258 L 106.113,-178.184 L 106.475,-179.064 L 106.817,-179.894
 L 107.136,-180.67 L 107.432,-181.388 L 107.702,-182.044 L 107.946,-182.636 L 108.162,-183.16 L 108.349,-183.615
 L 108.506,-183.997 L 108.633,-184.305 L 108.728,-184.537 L 108.792,-184.692 L 108.824,-184.77 L 112.351,-193.336
 L 112.43,-193.53 L 112.494,-193.729 L 112.545,-193.932 L 112.581,-194.138 L 112.603,-194.347 L 112.611,-194.556
 L 112.603,-194.765 L 112.581,-194.973 L 112.545,-195.18 L 112.494,-195.383 L 112.43,-195.582 L 112.351,-195.776
 L 112.26,-195.964 L 112.155,-196.146 L 112.038,-196.319 L 111.909,-196.484 L 111.769,-196.64 L 111.618,-196.785
 L 111.458,-196.92 L 111.288,-197.043 L 111.111,-197.154 L 110.926,-197.252 L 110.735,-197.337 L 110.538,-197.409
 L 14.0172,-227.364 L 13.3463,-227.556 L 13.145,-227.614 L 12.9402,-227.657 L 12.2574,-227.803 L 12.0501,-227.832
 L 11.3589,-227.929 L 10.6626,-227.977 L 10.4537,-227.992 L 9.54631,-227.992 L 9.33742,-227.977 L 8.64113,-227.929
 L 7.94993,-227.832 L 7.74257,-227.803 L 7.05984,-227.657 L 6.85502,-227.614 L 6.65373,-227.556 L 5.98278,-227.364
 L 5.32688,-227.125 L 5.13011,-227.053 L 4.49247,-226.769 L 4.30118,-226.684 L 4.11629,-226.586 L 3.5,-226.258
 L 2.90807,-225.888 L 2.73049,-225.777 L 2.56109,-225.654 L 1.9964,-225.244 L 1.46171,-224.795 L 1.3013,-224.661
 L 1.15067,-224.515 L 0.648582,-224.031 L 0.181536,-223.512 L 0.0414219,-223.356 L -0.0874958,-223.191 L -0.517221,-222.641
 L -0.907532,-222.063 L -1.02462,-221.889 L -1.37362,-221.284 L -1.47832,-221.103 L -1.57011,-220.915 L -1.87609,-220.288
 L -1.95453,-220.093 L -2.216,-219.446 L -2.43169,-218.782 L -2.4964,-218.583 L -2.54706,-218.38 L -2.71592,-217.703
 L -2.83712,-217.015 L -2.87348,-216.809 L -2.89537,-216.601 L -2.96833,-215.907 L -2.97564,-215.698 L -3,-215
 L -3,-177.069 L -2.99269,-176.86 L -2.9708,-176.652 L -2.93444,-176.445 L -2.88378,-176.242 L -2.81908,-176.043
 L -2.74064,-175.849 L -2.64884,-175.661 L -2.54414,-175.479 L -2.42705,-175.306 L -2.29813,-175.141 L -2.15802,-174.985
 L -2.00739,-174.84 L -1.84698,-174.705 L -1.78563,-174.654 L -1.54768,-174.424 L -0.47543,-173.388 L 0.624432,-172.326
 L 1.74654,-171.243 L 2.58256,-170.435 L 2.84591,-170.143 L 3.84596,-169.032 L 4.85091,-167.916 L 5.85585,-166.8
 L 6.64586,-165.923 L 7.43689,-164.91 L 8.2835,-163.826 L 9.11332,-162.764 L 9.92232,-161.729 L 10.3845,-161.137
 L 10.6625,-160.725 L 11.3149,-159.758 L 11.9394,-158.832 L 12.533,-157.952 L 13.0928,-157.122 L 13.616,-156.346
 L 13.7802,-156.103 L 13.9539,-155.802 L 14.3329,-155.146 L 14.6746,-154.554 L 14.9773,-154.03 L 15.2395,-153.575
 L 15.4601,-153.193 L 15.6264,-152.905 L 15.6671,-152.835 L 15.7718,-152.653 L 15.8616,-152.498 L 15.9066,-152.42
 L 16.8164,-150.844 L 19.4785,-145.386 L 21.7533,-139.756 L 23.6298,-133.98 L 25.0988,-128.088 L 26.1533,-122.108
 L 26.7881,-116.069 L 27,-110 L 26.7881,-103.931 L 26.1533,-97.8919 L 25.0988,-91.9117 L 23.6298,-86.0195
 L 21.7533,-80.2442 L 19.4785,-74.6139 L 16.8164,-69.156 L 13.7802,-63.897 L 10.3845,-58.8627 L 6.64587,-54.0775
 L 2.58256,-49.5647 L -1.78564,-45.3464 L -2.00739,-45.1603 L -2.15802,-45.0149 L -2.29813,-44.8593 L -2.42705,-44.6942
 L -2.54414,-44.5206 L -2.64884,-44.3393 L -2.74064,-44.1511 L -2.81908,-43.957 L -2.88378,-43.7578 L -2.93444,-43.5546
 L -2.9708,-43.3484 L -2.99269,-43.1402 L -3,-42.9309 z
M 37,-170 L 37.0317,-170.907 L 37.1265,-171.809 L 37.1417,-171.896 L 37.2841,-172.703 L 37.5036,-173.583
 L 37.784,-174.446 L 38.1239,-175.288 L 38.3069,-175.663 L 38.5217,-176.103 L 38.9754,-176.889 L 39.4828,-177.641
 L 40.0414,-178.356 L 40.6486,-179.031 L 41.3013,-179.661 L 41.9964,-180.244 L 42.7305,-180.777 L 43.5,-181.258
 L 44.3012,-181.684 L 45.1301,-182.053 L 45.9828,-182.364 L 46.855,-182.614 L 47.7426,-182.803 L 48.6411,-182.929
 L 49.5463,-182.992 L 50.4537,-182.992 L 51.3589,-182.929 L 52.2574,-182.803 L 53.145,-182.614 L 54.0172,-182.364
 L 54.8699,-182.053 L 55.6988,-181.684 L 56.5,-181.258 L 57.2695,-180.777 L 58.0036,-180.244 L 58.6987,-179.661
 L 59.3514,-179.031 L 59.9586,-178.356 L 60.5172,-177.641 L 61.0246,-176.889 L 61.4783,-176.103 L 61.8761,-175.288
 L 62.216,-174.446 L 62.4964,-173.583 L 62.7159,-172.703 L 62.8735,-171.809 L 62.9683,-170.907 L 63,-170
 L 62.9683,-169.093 L 62.8735,-168.191 L 62.7159,-167.297 L 62.4964,-166.417 L 62.216,-165.554 L 61.8761,-164.712
 L 61.4783,-163.897 L 61.0246,-163.111 L 60.5172,-162.359 L 59.9586,-161.644 L 59.3514,-160.969 L 58.6987,-160.339
 L 58.0036,-159.756 L 57.2695,-159.223 L 56.5,-158.742 L 55.6988,-158.316 L 54.8699,-157.947 L 54.0172,-157.636
 L 53.145,-157.386 L 52.2574,-157.197 L 51.3589,-157.071 L 50.4537,-157.008 L 49.5463,-157.008 L 48.6411,-157.071
 L 47.7426,-157.197 L 46.855,-157.386 L 45.9828,-157.636 L 45.1301,-157.947 L 44.3012,-158.316 L 43.5,-158.742
 L 42.7305,-159.223 L 41.9964,-159.756 L 41.6378,-160.057 L 41.3013,-160.339 L 40.6486,-160.969 L 40.0414,-161.644
 L 39.4828,-162.359 L 38.9754,-163.111 L 38.5217,-163.897 L 38.4115,-164.123 L 38.1239,-164.712 L 37.784,-165.554
 L 37.5036,-166.417 L 37.2841,-167.297 L 37.1265,-168.191 L 37.0317,-169.093 z
" stroke="black" fill="lightgray" stroke-width="0.5"/>
</svg>
