  0
SECTION
  2
BLOCKS
  0
ENDSEC
  0
SECTION
  2
ENTITIES
  0
LINE
  8
0
 10
-3
 20
15
 11
-2.99026
 21
14.721
  0
LINE
  8
0
 10
-2.99026
 20
14.721
 11
-2.98056
 21
14.4433
  0
LINE
  8
0
 10
-2.98056
 20
14.4433
 11
-2.97564
 21
14.3024
  0
LINE
  8
0
 10
-2.97564
 20
14.3024
 11
-2.96833
 21
14.0932
  0
LINE
  8
0
 10
-2.96833
 20
14.0932
 11
-2.95006
 21
13.9193
  0
LINE
  8
0
 10
-2.95006
 20
13.9193
 11
-2.92577
 21
13.6882
  0
LINE
  8
0
 10
-2.92577
 20
13.6882
 11
-2.89786
 21
13.4227
  0
LINE
  8
0
 10
-2.89786
 20
13.4227
 11
-2.89537
 21
13.399
  0
LINE
  8
0
 10
-2.89537
 20
13.399
 11
-2.87348
 21
13.1908
  0
LINE
  8
0
 10
-2.87348
 20
13.1908
 11
-2.83712
 21
12.9845
  0
LINE
  8
0
 10
-2.83712
 20
12.9845
 11
-2.79565
 21
12.7493
  0
LINE
  8
0
 10
-2.79565
 20
12.7493
 11
-2.7514
 21
12.4984
  0
LINE
  8
0
 10
-2.7514
 20
12.4984
 11
-2.71592
 21
12.2971
  0
LINE
  8
0
 10
-2.71592
 20
12.2971
 11
-2.70581
 21
12.2566
  0
LINE
  8
0
 10
-2.70581
 20
12.2566
 11
-2.6481
 21
12.0251
  0
LINE
  8
0
 10
-2.6481
 20
12.0251
 11
-2.59324
 21
11.8051
  0
LINE
  8
0
 10
-2.59324
 20
11.8051
 11
-2.54706
 21
11.6199
  0
LINE
  8
0
 10
-2.54706
 20
11.6199
 11
-2.4964
 21
11.4167
  0
LINE
  8
0
 10
-2.4964
 20
11.4167
 11
-2.43169
 21
11.2176
  0
LINE
  8
0
 10
-2.43169
 20
11.2176
 11
-2.42446
 21
11.1953
  0
LINE
  8
0
 10
-2.42446
 20
11.1953
 11
-2.36145
 21
11.0014
  0
LINE
  8
0
 10
-2.36145
 20
11.0014
 11
-2.30313
 21
10.8219
  0
LINE
  8
0
 10
-2.30313
 20
10.8219
 11
-2.27354
 21
10.7308
  0
LINE
  8
0
 10
-2.27354
 20
10.7308
 11
-2.216
 21
10.5537
  0
LINE
  8
0
 10
-2.216
 20
10.5537
 11
-2.15759
 21
10.4092
  0
LINE
  8
0
 10
-2.15759
 20
10.4092
 11
-2.14531
 21
10.3788
  0
LINE
  8
0
 10
-2.14531
 20
10.3788
 11
-2.09943
 21
10.2652
  0
LINE
  8
0
 10
-2.09943
 20
10.2652
 11
-2.02099
 21
10.0711
  0
LINE
  8
0
 10
-2.02099
 20
10.0711
 11
-2.02099
 21
10.0711
  0
LINE
  8
0
 10
-2.02099
 20
10.0711
 11
-1.95453
 21
9.90657
  0
LINE
  8
0
 10
-1.95453
 20
9.90657
 11
-1.87609
 21
9.71242
  0
LINE
  8
0
 10
-1.87609
 20
9.71242
 11
-1.57011
 21
9.08507
  0
LINE
  8
0
 10
-1.57011
 20
9.08507
 11
-1.47832
 21
8.89687
  0
LINE
  8
0
 10
-1.47832
 20
8.89687
 11
-1.37362
 21
8.71553
  0
LINE
  8
0
 10
-1.37362
 20
8.71553
 11
-1.02462
 21
8.11105
  0
LINE
  8
0
 10
-1.02462
 20
8.11105
 11
-0.907532
 21
7.93745
  0
LINE
  8
0
 10
-0.907532
 20
7.93745
 11
-0.517221
 21
7.35879
  0
LINE
  8
0
 10
-0.517221
 20
7.35879
 11
-0.0874958
 21
6.80877
  0
LINE
  8
0
 10
-0.0874958
 20
6.80877
 11
0.0414219
 21
6.64376
  0
LINE
  8
0
 10
0.0414219
 20
6.64376
 11
0.181536
 21
6.48815
  0
LINE
  8
0
 10
0.181536
 20
6.48815
 11
0.648582
 21
5.96944
  0
LINE
  8
0
 10
0.648582
 20
5.96944
 11
1.15067
 21
5.48458
  0
LINE
  8
0
 10
1.15067
 20
5.48458
 11
1.3013
 21
5.33912
  0
LINE
  8
0
 10
1.3013
 20
5.33912
 11
1.46171
 21
5.20452
  0
LINE
  8
0
 10
1.46171
 20
5.20452
 11
1.9964
 21
4.75586
  0
LINE
  8
0
 10
1.9964
 20
4.75586
 11
2.56109
 21
4.34559
  0
LINE
  8
0
 10
2.56109
 20
4.34559
 11
2.73049
 21
4.22251
  0
LINE
  8
0
 10
2.73049
 20
4.22251
 11
2.90807
 21
4.11155
  0
LINE
  8
0
 10
2.90807
 20
4.11155
 11
3.5
 21
3.74167
  0
LINE
  8
0
 10
3.5
 20
3.74167
 11
4.11629
 21
3.41398
  0
LINE
  8
0
 10
4.11629
 20
3.41398
 11
4.30118
 21
3.31568
  0
LINE
  8
0
 10
4.30118
 20
3.31568
 11
4.49247
 21
3.23051
  0
LINE
  8
0
 10
4.49247
 20
3.23051
 11
5.13011
 21
2.94661
  0
LINE
  8
0
 10
5.13011
 20
2.94661
 11
30.1301
 21
-7.05339
  0
LINE
  8
0
 10
30.1301
 20
-7.05339
 11
30.3269
 21
-7.12501
  0
LINE
  8
0
 10
30.3269
 20
-7.12501
 11
30.9828
 21
-7.36373
  0
LINE
  8
0
 10
30.9828
 20
-7.36373
 11
31.6537
 21
-7.55613
  0
LINE
  8
0
 10
31.6537
 20
-7.55613
 11
31.855
 21
-7.61384
  0
LINE
  8
0
 10
31.855
 20
-7.61384
 11
32.0598
 21
-7.65738
  0
LINE
  8
0
 10
32.0598
 20
-7.65738
 11
32.7426
 21
-7.8025
  0
LINE
  8
0
 10
32.7426
 20
-7.8025
 11
32.9499
 21
-7.83164
  0
LINE
  8
0
 10
32.9499
 20
-7.83164
 11
33.6411
 21
-7.92878
  0
LINE
  8
0
 10
33.6411
 20
-7.92878
 11
34.3374
 21
-7.97747
  0
LINE
  8
0
 10
34.3374
 20
-7.97747
 11
34.5463
 21
-7.99208
  0
LINE
  8
0
 10
34.5463
 20
-7.99208
 11
35.4537
 21
-7.99208
  0
LINE
  8
0
 10
35.4537
 20
-7.99208
 11
35.6626
 21
-7.97747
  0
LINE
  8
0
 10
35.6626
 20
-7.97747
 11
36.3589
 21
-7.92878
  0
LINE
  8
0
 10
36.3589
 20
-7.92878
 11
37.0501
 21
-7.83164
  0
LINE
  8
0
 10
37.0501
 20
-7.83164
 11
37.2574
 21
-7.8025
  0
LINE
  8
0
 10
37.2574
 20
-7.8025
 11
37.9402
 21
-7.65738
  0
LINE
  8
0
 10
37.9402
 20
-7.65738
 11
38.145
 21
-7.61384
  0
LINE
  8
0
 10
38.145
 20
-7.61384
 11
38.3463
 21
-7.55613
  0
LINE
  8
0
 10
38.3463
 20
-7.55613
 11
39.0172
 21
-7.36373
  0
LINE
  8
0
 10
39.0172
 20
-7.36373
 11
39.6731
 21
-7.12501
  0
LINE
  8
0
 10
39.6731
 20
-7.12501
 11
39.8699
 21
-7.05339
  0
LINE
  8
0
 10
39.8699
 20
-7.05339
 11
40.5075
 21
-6.76949
  0
LINE
  8
0
 10
40.5075
 20
-6.76949
 11
40.6988
 21
-6.68432
  0
LINE
  8
0
 10
40.6988
 20
-6.68432
 11
40.8837
 21
-6.58602
  0
LINE
  8
0
 10
40.8837
 20
-6.58602
 11
41.5
 21
-6.25833
  0
LINE
  8
0
 10
41.5
 20
-6.25833
 11
42.0919
 21
-5.88845
  0
LINE
  8
0
 10
42.0919
 20
-5.88845
 11
42.2695
 21
-5.77749
  0
LINE
  8
0
 10
42.2695
 20
-5.77749
 11
42.4389
 21
-5.65441
  0
LINE
  8
0
 10
42.4389
 20
-5.65441
 11
43.0036
 21
-5.24414
  0
LINE
  8
0
 10
43.0036
 20
-5.24414
 11
43.5383
 21
-4.79548
  0
LINE
  8
0
 10
43.5383
 20
-4.79548
 11
43.6987
 21
-4.66088
  0
LINE
  8
0
 10
43.6987
 20
-4.66088
 11
43.8493
 21
-4.51542
  0
LINE
  8
0
 10
43.8493
 20
-4.51542
 11
44.3514
 21
-4.03056
  0
LINE
  8
0
 10
44.3514
 20
-4.03056
 11
44.8185
 21
-3.51185
  0
LINE
  8
0
 10
44.8185
 20
-3.51185
 11
44.9586
 21
-3.35624
  0
LINE
  8
0
 10
44.9586
 20
-3.35624
 11
45.0875
 21
-3.19123
  0
LINE
  8
0
 10
45.0875
 20
-3.19123
 11
45.5172
 21
-2.64121
  0
LINE
  8
0
 10
45.5172
 20
-2.64121
 11
51.7406
 21
5.91589
  0
LINE
  8
0
 10
51.7406
 20
5.91589
 11
51.8577
 21
6.08949
  0
LINE
  8
0
 10
51.8577
 20
6.08949
 11
51.9624
 21
6.27083
  0
LINE
  8
0
 10
51.9624
 20
6.27083
 11
52.0541
 21
6.45904
  0
LINE
  8
0
 10
52.0541
 20
6.45904
 11
52.1326
 21
6.65318
  0
LINE
  8
0
 10
52.1326
 20
6.65318
 11
52.1973
 21
6.85233
  0
LINE
  8
0
 10
52.1973
 20
6.85233
 11
52.248
 21
7.05551
  0
LINE
  8
0
 10
52.248
 20
7.05551
 11
52.2843
 21
7.26173
  0
LINE
  8
0
 10
52.2843
 20
7.26173
 11
52.3062
 21
7.46998
  0
LINE
  8
0
 10
52.3062
 20
7.46998
 11
52.3135
 21
7.67924
  0
LINE
  8
0
 10
52.3135
 20
7.67924
 11
52.3062
 21
7.88851
  0
LINE
  8
0
 10
52.3062
 20
7.88851
 11
52.2843
 21
8.09676
  0
LINE
  8
0
 10
52.2843
 20
8.09676
 11
52.248
 21
8.30298
  0
LINE
  8
0
 10
52.248
 20
8.30298
 11
52.1973
 21
8.50616
  0
LINE
  8
0
 10
52.1973
 20
8.50616
 11
52.1326
 21
8.70531
  0
LINE
  8
0
 10
52.1326
 20
8.70531
 11
52.0541
 21
8.89945
  0
LINE
  8
0
 10
52.0541
 20
8.89945
 11
51.9624
 21
9.08766
  0
LINE
  8
0
 10
51.9624
 20
9.08766
 11
51.8577
 21
9.269
  0
LINE
  8
0
 10
51.8577
 20
9.269
 11
51.7406
 21
9.4426
  0
LINE
  8
0
 10
51.7406
 20
9.4426
 11
51.6116
 21
9.60761
  0
LINE
  8
0
 10
51.6116
 20
9.60761
 11
51.4715
 21
9.76322
  0
LINE
  8
0
 10
51.4715
 20
9.76322
 11
51.3209
 21
9.90868
  0
LINE
  8
0
 10
51.3209
 20
9.90868
 11
51.1605
 21
10.0433
  0
LINE
  8
0
 10
51.1605
 20
10.0433
 11
50.9911
 21
10.1664
  0
LINE
  8
0
 10
50.9911
 20
10.1664
 11
50.8135
 21
10.2773
  0
LINE
  8
0
 10
50.8135
 20
10.2773
 11
50.6286
 21
10.3756
  0
LINE
  8
0
 10
50.6286
 20
10.3756
 11
50.4373
 21
10.4608
  0
LINE
  8
0
 10
50.4373
 20
10.4608
 11
50.2406
 21
10.5324
  0
LINE
  8
0
 10
50.2406
 20
10.5324
 11
39.691
 21
14.0489
  0
LINE
  8
0
 10
39.691
 20
14.0489
 11
39.6254
 21
14.0728
  0
LINE
  8
0
 10
39.6254
 20
14.0728
 11
39.5616
 21
14.1012
  0
LINE
  8
0
 10
39.5616
 20
14.1012
 11
39.5
 21
14.134
  0
LINE
  8
0
 10
39.5
 20
14.134
 11
39.4408
 21
14.171
  0
LINE
  8
0
 10
39.4408
 20
14.171
 11
39.3843
 21
14.212
  0
LINE
  8
0
 10
39.3843
 20
14.212
 11
39.3309
 21
14.2569
  0
LINE
  8
0
 10
39.3309
 20
14.2569
 11
39.2807
 21
14.3053
  0
LINE
  8
0
 10
39.2807
 20
14.3053
 11
39.2339
 21
14.3572
  0
LINE
  8
0
 10
39.2339
 20
14.3572
 11
39.191
 21
14.4122
  0
LINE
  8
0
 10
39.191
 20
14.4122
 11
39.152
 21
14.4701
  0
LINE
  8
0
 10
39.152
 20
14.4701
 11
39.1171
 21
14.5305
  0
LINE
  8
0
 10
39.1171
 20
14.5305
 11
39.0865
 21
14.5933
  0
LINE
  8
0
 10
39.0865
 20
14.5933
 11
39.0603
 21
14.658
  0
LINE
  8
0
 10
39.0603
 20
14.658
 11
39.0387
 21
14.7244
  0
LINE
  8
0
 10
39.0387
 20
14.7244
 11
39.0219
 21
14.7921
  0
LINE
  8
0
 10
39.0219
 20
14.7921
 11
39.0097
 21
14.8608
  0
LINE
  8
0
 10
39.0097
 20
14.8608
 11
39.0024
 21
14.9302
  0
LINE
  8
0
 10
39.0024
 20
14.9302
 11
39
 21
15
  0
LINE
  8
0
 10
39
 20
15
 11
39.0024
 21
15.0698
  0
LINE
  8
0
 10
39.0024
 20
15.0698
 11
39.0097
 21
15.1392
  0
LINE
  8
0
 10
39.0097
 20
15.1392
 11
39.0219
 21
15.2079
  0
LINE
  8
0
 10
39.0219
 20
15.2079
 11
39.0387
 21
15.2756
  0
LINE
  8
0
 10
39.0387
 20
15.2756
 11
39.0603
 21
15.342
  0
LINE
  8
0
 10
39.0603
 20
15.342
 11
39.0865
 21
15.4068
  0
LINE
  8
0
 10
39.0865
 20
15.4068
 11
49.9941
 21
41.8968
  0
LINE
  8
0
 10
49.9941
 20
41.8968
 11
51.791
 21
46.2605
  0
LINE
  8
0
 10
51.791
 20
46.2605
 11
53.7132
 21
50.9289
  0
LINE
  8
0
 10
53.7132
 20
50.9289
 11
55.7515
 21
55.8791
  0
LINE
  8
0
 10
55.7515
 20
55.8791
 11
57.896
 21
61.0871
  0
LINE
  8
0
 10
57.896
 20
61.0871
 11
60.1361
 21
66.5274
  0
LINE
  8
0
 10
60.1361
 20
66.5274
 11
62.461
 21
72.1735
  0
LINE
  8
0
 10
62.461
 20
72.1735
 11
64.8593
 21
77.998
  0
LINE
  8
0
 10
64.8593
 20
77.998
 11
67.3194
 21
83.9724
  0
LINE
  8
0
 10
67.3194
 20
83.9724
 11
69.8292
 21
90.0677
  0
LINE
  8
0
 10
69.8292
 20
90.0677
 11
72.3766
 21
96.2542
  0
LINE
  8
0
 10
72.3766
 20
96.2542
 11
74.9491
 21
102.502
  0
LINE
  8
0
 10
74.9491
 20
102.502
 11
80.1193
 21
115.058
  0
LINE
  8
0
 10
80.1193
 20
115.058
 11
82.6918
 21
121.305
  0
LINE
  8
0
 10
82.6918
 20
121.305
 11
85.2391
 21
127.492
  0
LINE
  8
0
 10
85.2391
 20
127.492
 11
87.749
 21
133.587
  0
LINE
  8
0
 10
87.749
 20
133.587
 11
90.209
 21
139.562
  0
LINE
  8
0
 10
90.209
 20
139.562
 11
92.6074
 21
145.386
  0
LINE
  8
0
 10
92.6074
 20
145.386
 11
94.9322
 21
151.032
  0
LINE
  8
0
 10
94.9322
 20
151.032
 11
95.6558
 21
152.79
  0
LINE
  8
0
 10
95.6558
 20
152.79
 11
95.6879
 21
152.867
  0
LINE
  8
0
 10
95.6879
 20
152.867
 11
95.7519
 21
153.023
  0
LINE
  8
0
 10
95.7519
 20
153.023
 11
95.8475
 21
153.255
  0
LINE
  8
0
 10
95.8475
 20
153.255
 11
95.9743
 21
153.563
  0
LINE
  8
0
 10
95.9743
 20
153.563
 11
96.1316
 21
153.945
  0
LINE
  8
0
 10
96.1316
 20
153.945
 11
96.3186
 21
154.399
  0
LINE
  8
0
 10
96.3186
 20
154.399
 11
96.5345
 21
154.923
  0
LINE
  8
0
 10
96.5345
 20
154.923
 11
96.7782
 21
155.515
  0
LINE
  8
0
 10
96.7782
 20
155.515
 11
97.0485
 21
156.172
  0
LINE
  8
0
 10
97.0485
 20
156.172
 11
97.344
 21
156.889
  0
LINE
  8
0
 10
97.344
 20
156.889
 11
97.6635
 21
157.665
  0
LINE
  8
0
 10
97.6635
 20
157.665
 11
98.0052
 21
158.495
  0
LINE
  8
0
 10
98.0052
 20
158.495
 11
98.3676
 21
159.375
  0
LINE
  8
0
 10
98.3676
 20
159.375
 11
98.7488
 21
160.301
  0
LINE
  8
0
 10
98.7488
 20
160.301
 11
99.1471
 21
161.268
  0
LINE
  8
0
 10
99.1471
 20
161.268
 11
99.5604
 21
162.272
  0
LINE
  8
0
 10
99.5604
 20
162.272
 11
99.9868
 21
163.307
  0
LINE
  8
0
 10
99.9868
 20
163.307
 11
100.424
 21
164.37
  0
LINE
  8
0
 10
100.424
 20
164.37
 11
100.87
 21
165.453
  0
LINE
  8
0
 10
100.87
 20
165.453
 11
101.323
 21
166.553
  0
LINE
  8
0
 10
101.323
 20
166.553
 11
101.78
 21
167.664
  0
LINE
  8
0
 10
101.78
 20
167.664
 11
102.24
 21
168.78
  0
LINE
  8
0
 10
102.24
 20
168.78
 11
102.7
 21
169.896
  0
LINE
  8
0
 10
102.7
 20
169.896
 11
103.157
 21
171.007
  0
LINE
  8
0
 10
103.157
 20
171.007
 11
103.61
 21
172.106
  0
LINE
  8
0
 10
103.61
 20
172.106
 11
104.056
 21
173.19
  0
LINE
  8
0
 10
104.056
 20
173.19
 11
104.493
 21
174.252
  0
LINE
  8
0
 10
104.493
 20
174.252
 11
104.92
 21
175.288
  0
LINE
  8
0
 10
104.92
 20
175.288
 11
105.333
 21
176.291
  0
LINE
  8
0
 10
105.333
 20
176.291
 11
105.731
 21
177.258
  0
LINE
  8
0
 10
105.731
 20
177.258
 11
106.113
 21
178.184
  0
LINE
  8
0
 10
106.113
 20
178.184
 11
106.475
 21
179.064
  0
LINE
  8
0
 10
106.475
 20
179.064
 11
106.817
 21
179.894
  0
LINE
  8
0
 10
106.817
 20
179.894
 11
107.136
 21
180.67
  0
LINE
  8
0
 10
107.136
 20
180.67
 11
107.432
 21
181.388
  0
LINE
  8
0
 10
107.432
 20
181.388
 11
107.702
 21
182.044
  0
LINE
  8
0
 10
107.702
 20
182.044
 11
107.946
 21
182.636
  0
LINE
  8
0
 10
107.946
 20
182.636
 11
108.162
 21
183.16
  0
LINE
  8
0
 10
108.162
 20
183.16
 11
108.349
 21
183.615
  0
LINE
  8
0
 10
108.349
 20
183.615
 11
108.506
 21
183.997
  0
LINE
  8
0
 10
108.506
 20
183.997
 11
108.633
 21
184.305
  0
LINE
  8
0
 10
108.633
 20
184.305
 11
108.728
 21
184.537
  0
LINE
  8
0
 10
108.728
 20
184.537
 11
108.792
 21
184.692
  0
LINE
  8
0
 10
108.792
 20
184.692
 11
108.824
 21
184.77
  0
LINE
  8
0
 10
108.824
 20
184.77
 11
112.351
 21
193.336
  0
LINE
  8
0
 10
112.351
 20
193.336
 11
112.43
 21
193.53
  0
LINE
  8
0
 10
112.43
 20
193.53
 11
112.494
 21
193.729
  0
LINE
  8
0
 10
112.494
 20
193.729
 11
112.545
 21
193.932
  0
LINE
  8
0
 10
112.545
 20
193.932
 11
112.581
 21
194.138
  0
LINE
  8
0
 10
112.581
 20
194.138
 11
112.603
 21
194.347
  0
LINE
  8
0
 10
112.603
 20
194.347
 11
112.611
 21
194.556
  0
LINE
  8
0
 10
112.611
 20
194.556
 11
112.603
 21
194.765
  0
LINE
  8
0
 10
112.603
 20
194.765
 11
112.581
 21
194.973
  0
LINE
  8
0
 10
112.581
 20
194.973
 11
112.545
 21
195.18
  0
LINE
  8
0
 10
112.545
 20
195.18
 11
112.494
 21
195.383
  0
LINE
  8
0
 10
112.494
 20
195.383
 11
112.43
 21
195.582
  0
LINE
  8
0
 10
112.43
 20
195.582
 11
112.351
 21
195.776
  0
LINE
  8
0
 10
112.351
 20
195.776
 11
112.26
 21
195.964
  0
LINE
  8
0
 10
112.26
 20
195.964
 11
112.155
 21
196.146
  0
LINE
  8
0
 10
112.155
 20
196.146
 11
112.038
 21
196.319
  0
LINE
  8
0
 10
112.038
 20
196.319
 11
111.909
 21
196.484
  0
LINE
  8
0
 10
111.909
 20
196.484
 11
111.769
 21
196.64
  0
LINE
  8
0
 10
111.769
 20
196.64
 11
111.618
 21
196.785
  0
LINE
  8
0
 10
111.618
 20
196.785
 11
111.458
 21
196.92
  0
LINE
  8
0
 10
111.458
 20
196.92
 11
111.288
 21
197.043
  0
LINE
  8
0
 10
111.288
 20
197.043
 11
111.111
 21
197.154
  0
LINE
  8
0
 10
111.111
 20
197.154
 11
110.926
 21
197.252
  0
LINE
  8
0
 10
110.926
 20
197.252
 11
110.735
 21
197.337
  0
LINE
  8
0
 10
110.735
 20
197.337
 11
110.538
 21
197.409
  0
LINE
  8
0
 10
110.538
 20
197.409
 11
14.0172
 21
227.364
  0
LINE
  8
0
 10
14.0172
 20
227.364
 11
13.3463
 21
227.556
  0
LINE
  8
0
 10
13.3463
 20
227.556
 11
13.145
 21
227.614
  0
LINE
  8
0
 10
13.145
 20
227.614
 11
12.9402
 21
227.657
  0
LINE
  8
0
 10
12.9402
 20
227.657
 11
12.2574
 21
227.803
  0
LINE
  8
0
 10
12.2574
 20
227.803
 11
12.0501
 21
227.832
  0
LINE
  8
0
 10
12.0501
 20
227.832
 11
11.3589
 21
227.929
  0
LINE
  8
0
 10
11.3589
 20
227.929
 11
10.6626
 21
227.977
  0
LINE
  8
0
 10
10.6626
 20
227.977
 11
10.4537
 21
227.992
  0
LINE
  8
0
 10
10.4537
 20
227.992
 11
9.54631
 21
227.992
  0
LINE
  8
0
 10
9.54631
 20
227.992
 11
9.33742
 21
227.977
  0
LINE
  8
0
 10
9.33742
 20
227.977
 11
8.64113
 21
227.929
  0
LINE
  8
0
 10
8.64113
 20
227.929
 11
7.94993
 21
227.832
  0
LINE
  8
0
 10
7.94993
 20
227.832
 11
7.74257
 21
227.803
  0
LINE
  8
0
 10
7.74257
 20
227.803
 11
7.05984
 21
227.657
  0
LINE
  8
0
 10
7.05984
 20
227.657
 11
6.85502
 21
227.614
  0
LINE
  8
0
 10
6.85502
 20
227.614
 11
6.65373
 21
227.556
  0
LINE
  8
0
 10
6.65373
 20
227.556
 11
5.98278
 21
227.364
  0
LINE
  8
0
 10
5.98278
 20
227.364
 11
5.32688
 21
227.125
  0
LINE
  8
0
 10
5.32688
 20
227.125
 11
5.13011
 21
227.053
  0
LINE
  8
0
 10
5.13011
 20
227.053
 11
4.49247
 21
226.769
  0
LINE
  8
0
 10
4.49247
 20
226.769
 11
4.30118
 21
226.684
  0
LINE
  8
0
 10
4.30118
 20
226.684
 11
4.11629
 21
226.586
  0
LINE
  8
0
 10
4.11629
 20
226.586
 11
3.5
 21
226.258
  0
LINE
  8
0
 10
3.5
 20
226.258
 11
2.90807
 21
225.888
  0
LINE
  8
0
 10
2.90807
 20
225.888
 11
2.73049
 21
225.777
  0
LINE
  8
0
 10
2.73049
 20
225.777
 11
2.56109
 21
225.654
  0
LINE
  8
0
 10
2.56109
 20
225.654
 11
1.9964
 21
225.244
  0
LINE
  8
0
 10
1.9964
 20
225.244
 11
1.46171
 21
224.795
  0
LINE
  8
0
 10
1.46171
 20
224.795
 11
1.3013
 21
224.661
  0
LINE
  8
0
 10
1.3013
 20
224.661
 11
1.15067
 21
224.515
  0
LINE
  8
0
 10
1.15067
 20
224.515
 11
0.648582
 21
224.031
  0
LINE
  8
0
 10
0.648582
 20
224.031
 11
0.181536
 21
223.512
  0
LINE
  8
0
 10
0.181536
 20
223.512
 11
0.0414219
 21
223.356
  0
LINE
  8
0
 10
0.0414219
 20
223.356
 11
-0.0874958
 21
223.191
  0
LINE
  8
0
 10
-0.0874958
 20
223.191
 11
-0.517221
 21
222.641
  0
LINE
  8
0
 10
-0.517221
 20
222.641
 11
-0.907532
 21
222.063
  0
LINE
  8
0
 10
-0.907532
 20
222.063
 11
-1.02462
 21
221.889
  0
LINE
  8
0
 10
-1.02462
 20
221.889
 11
-1.37362
 21
221.284
  0
LINE
  8
0
 10
-1.37362
 20
221.284
 11
-1.47832
 21
221.103
  0
LINE
  8
0
 10
-1.47832
 20
221.103
 11
-1.57011
 21
220.915
  0
LINE
  8
0
 10
-1.57011
 20
220.915
 11
-1.87609
 21
220.288
  0
LINE
  8
0
 10
-1.87609
 20
220.288
 11
-1.95453
 21
220.093
  0
LINE
  8
0
 10
-1.95453
 20
220.093
 11
-2.216
 21
219.446
  0
LINE
  8
0
 10
-2.216
 20
219.446
 11
-2.43169
 21
218.782
  0
LINE
  8
0
 10
-2.43169
 20
218.782
 11
-2.4964
 21
218.583
  0
LINE
  8
0
 10
-2.4964
 20
218.583
 11
-2.54706
 21
218.38
  0
LINE
  8
0
 10
-2.54706
 20
218.38
 11
-2.71592
 21
217.703
  0
LINE
  8
0
 10
-2.71592
 20
217.703
 11
-2.83712
 21
217.015
  0
LINE
  8
0
 10
-2.83712
 20
217.015
 11
-2.87348
 21
216.809
  0
LINE
  8
0
 10
-2.87348
 20
216.809
 11
-2.89537
 21
216.601
  0
LINE
  8
0
 10
-2.89537
 20
216.601
 11
-2.96833
 21
215.907
  0
LINE
  8
0
 10
-2.96833
 20
215.907
 11
-2.97564
 21
215.698
  0
LINE
  8
0
 10
-2.97564
 20
215.698
 11
-3
 21
215
  0
LINE
  8
0
 10
-3
 20
215
 11
-3
 21
177.069
  0
LINE
  8
0
 10
-3
 20
177.069
 11
-2.99269
 21
176.86
  0
LINE
  8
0
 10
-2.99269
 20
176.86
 11
-2.9708
 21
176.652
  0
LINE
  8
0
 10
-2.9708
 20
176.652
 11
-2.93444
 21
176.445
  0
LINE
  8
0
 10
-2.93444
 20
176.445
 11
-2.88378
 21
176.242
  0
LINE
  8
0
 10
-2.88378
 20
176.242
 11
-2.81908
 21
176.043
  0
LINE
  8
0
 10
-2.81908
 20
176.043
 11
-2.74064
 21
175.849
  0
LINE
  8
0
 10
-2.74064
 20
175.849
 11
-2.64884
 21
175.661
  0
LINE
  8
0
 10
-2.64884
 20
175.661
 11
-2.54414
 21
175.479
  0
LINE
  8
0
 10
-2.54414
 20
175.479
 11
-2.42705
 21
175.306
  0
LINE
  8
0
 10
-2.42705
 20
175.306
 11
-2.29813
 21
175.141
  0
LINE
  8
0
 10
-2.29813
 20
175.141
 11
-2.15802
 21
174.985
  0
LINE
  8
0
 10
-2.15802
 20
174.985
 11
-2.00739
 21
174.84
  0
LINE
  8
0
 10
-2.00739
 20
174.84
 11
-1.84698
 21
174.705
  0
LINE
  8
0
 10
-1.84698
 20
174.705
 11
-1.78563
 21
174.654
  0
LINE
  8
0
 10
-1.78563
 20
174.654
 11
-1.54768
 21
174.424
  0
LINE
  8
0
 10
-1.54768
 20
174.424
 11
-0.47543
 21
173.388
  0
LINE
  8
0
 10
-0.47543
 20
173.388
 11
0.624432
 21
172.326
  0
LINE
  8
0
 10
0.624432
 20
172.326
 11
1.74654
 21
171.243
  0
LINE
  8
0
 10
1.74654
 20
171.243
 11
2.58256
 21
170.435
  0
LINE
  8
0
 10
2.58256
 20
170.435
 11
2.84591
 21
170.143
  0
LINE
  8
0
 10
2.84591
 20
170.143
 11
3.84596
 21
169.032
  0
LINE
  8
0
 10
3.84596
 20
169.032
 11
4.85091
 21
167.916
  0
LINE
  8
0
 10
4.85091
 20
167.916
 11
5.85585
 21
166.8
  0
LINE
  8
0
 10
5.85585
 20
166.8
 11
6.64586
 21
165.923
  0
LINE
  8
0
 10
6.64586
 20
165.923
 11
7.43689
 21
164.91
  0
LINE
  8
0
 10
7.43689
 20
164.91
 11
8.2835
 21
163.826
  0
LINE
  8
0
 10
8.2835
 20
163.826
 11
9.11332
 21
162.764
  0
LINE
  8
0
 10
9.11332
 20
162.764
 11
9.92232
 21
161.729
  0
LINE
  8
0
 10
9.92232
 20
161.729
 11
10.3845
 21
161.137
  0
LINE
  8
0
 10
10.3845
 20
161.137
 11
10.6625
 21
160.725
  0
LINE
  8
0
 10
10.6625
 20
160.725
 11
11.3149
 21
159.758
  0
LINE
  8
0
 10
11.3149
 20
159.758
 11
11.9394
 21
158.832
  0
LINE
  8
0
 10
11.9394
 20
158.832
 11
12.533
 21
157.952
  0
LINE
  8
0
 10
12.533
 20
157.952
 11
13.0928
 21
157.122
  0
LINE
  8
0
 10
13.0928
 20
157.122
 11
13.616
 21
156.346
  0
LINE
  8
0
 10
13.616
 20
156.346
 11
13.7802
 21
156.103
  0
LINE
  8
0
 10
13.7802
 20
156.103
 11
13.9539
 21
155.802
  0
LINE
  8
0
 10
13.9539
 20
155.802
 11
14.3329
 21
155.146
  0
LINE
  8
0
 10
14.3329
 20
155.146
 11
14.6746
 21
154.554
  0
LINE
  8
0
 10
14.6746
 20
154.554
 11
14.9773
 21
154.03
  0
LINE
  8
0
 10
14.9773
 20
154.03
 11
15.2395
 21
153.575
  0
LINE
  8
0
 10
15.2395
 20
153.575
 11
15.4601
 21
153.193
  0
LINE
  8
0
 10
15.4601
 20
153.193
 11
15.6264
 21
152.905
  0
LINE
  8
0
 10
15.6264
 20
152.905
 11
15.6671
 21
152.835
  0
LINE
  8
0
 10
15.6671
 20
152.835
 11
15.7718
 21
152.653
  0
LINE
  8
0
 10
15.7718
 20
152.653
 11
15.8616
 21
152.498
  0
LINE
  8
0
 10
15.8616
 20
152.498
 11
15.9066
 21
152.42
  0
LINE
  8
0
 10
15.9066
 20
152.42
 11
16.8164
 21
150.844
  0
LINE
  8
0
 10
16.8164
 20
150.844
 11
19.4785
 21
145.386
  0
LINE
  8
0
 10
19.4785
 20
145.386
 11
21.7533
 21
139.756
  0
LINE
  8
0
 10
21.7533
 20
139.756
 11
23.6298
 21
133.98
  0
LINE
  8
0
 10
23.6298
 20
133.98
 11
25.0988
 21
128.088
  0
LINE
  8
0
 10
25.0988
 20
128.088
 11
26.1533
 21
122.108
  0
LINE
  8
0
 10
26.1533
 20
122.108
 11
26.7881
 21
116.069
  0
LINE
  8
0
 10
26.7881
 20
116.069
 11
27
 21
110
  0
LINE
  8
0
 10
27
 20
110
 11
26.7881
 21
103.931
  0
LINE
  8
0
 10
26.7881
 20
103.931
 11
26.1533
 21
97.8919
  0
LINE
  8
0
 10
26.1533
 20
97.8919
 11
25.0988
 21
91.9117
  0
LINE
  8
0
 10
25.0988
 20
91.9117
 11
23.6298
 21
86.0195
  0
LINE
  8
0
 10
23.6298
 20
86.0195
 11
21.7533
 21
80.2442
  0
LINE
  8
0
 10
21.7533
 20
80.2442
 11
19.4785
 21
74.6139
  0
LINE
  8
0
 10
19.4785
 20
74.6139
 11
16.8164
 21
69.156
  0
LINE
  8
0
 10
16.8164
 20
69.156
 11
13.7802
 21
63.897
  0
LINE
  8
0
 10
13.7802
 20
63.897
 11
10.3845
 21
58.8627
  0
LINE
  8
0
 10
10.3845
 20
58.8627
 11
6.64587
 21
54.0775
  0
LINE
  8
0
 10
6.64587
 20
54.0775
 11
2.58256
 21
49.5647
  0
LINE
  8
0
 10
2.58256
 20
49.5647
 11
-1.78564
 21
45.3464
  0
LINE
  8
0
 10
-1.78564
 20
45.3464
 11
-2.00739
 21
45.1603
  0
LINE
  8
0
 10
-2.00739
 20
45.1603
 11
-2.15802
 21
45.0149
  0
LINE
  8
0
 10
-2.15802
 20
45.0149
 11
-2.29813
 21
44.8593
  0
LINE
  8
0
 10
-2.29813
 20
44.8593
 11
-2.42705
 21
44.6942
  0
LINE
  8
0
 10
-2.42705
 20
44.6942
 11
-2.54414
 21
44.5206
  0
LINE
  8
0
 10
-2.54414
 20
44.5206
 11
-2.64884
 21
44.3393
  0
LINE
  8
0
 10
-2.64884
 20
44.3393
 11
-2.74064
 21
44.1511
  0
LINE
  8
0
 10
-2.74064
 20
44.1511
 11
-2.81908
 21
43.957
  0
LINE
  8
0
 10
-2.81908
 20
43.957
 11
-2.88378
 21
43.7578
  0
LINE
  8
0
 10
-2.88378
 20
43.7578
 11
-2.93444
 21
43.5546
  0
LINE
  8
0
 10
-2.93444
 20
43.5546
 11
-2.9708
 21
43.3484
  0
LINE
  8
0
 10
-2.9708
 20
43.3484
 11
-2.99269
 21
43.1402
  0
LINE
  8
0
 10
-2.99269
 20
43.1402
 11
-3
 21
42.9309
  0
LINE
  8
0
 10
-3
 20
42.9309
 11
-3
 21
15
  0
LINE
  8
0
 10
37
 20
170
 11
37.0317
 21
170.907
  0
LINE
  8
0
 10
37.0317
 20
170.907
 11
37.1265
 21
171.809
  0
LINE
  8
0
 10
37.1265
 20
171.809
 11
37.1417
 21
171.896
  0
LINE
  8
0
 10
37.1417
 20
171.896
 11
37.2841
 21
172.703
  0
LINE
  8
0
 10
37.2841
 20
172.703
 11
37.5036
 21
173.583
  0
LINE
  8
0
 10
37.5036
 20
173.583
 11
37.784
 21
174.446
  0
LINE
  8
0
 10
37.784
 20
174.446
 11
38.1239
 21
175.288
  0
LINE
  8
0
 10
38.1239
 20
175.288
 11
38.3069
 21
175.663
  0
LINE
  8
0
 10
38.3069
 20
175.663
 11
38.5217
 21
176.103
  0
LINE
  8
0
 10
38.5217
 20
176.103
 11
38.9754
 21
176.889
  0
LINE
  8
0
 10
38.9754
 20
176.889
 11
39.4828
 21
177.641
  0
LINE
  8
0
 10
39.4828
 20
177.641
 11
40.0414
 21
178.356
  0
LINE
  8
0
 10
40.0414
 20
178.356
 11
40.6486
 21
179.031
  0
LINE
  8
0
 10
40.6486
 20
179.031
 11
41.3013
 21
179.661
  0
LINE
  8
0
 10
41.3013
 20
179.661
 11
41.9964
 21
180.244
  0
LINE
  8
0
 10
41.9964
 20
180.244
 11
42.7305
 21
180.777
  0
LINE
  8
0
 10
42.7305
 20
180.777
 11
43.5
 21
181.258
  0
LINE
  8
0
 10
43.5
 20
181.258
 11
44.3012
 21
181.684
  0
LINE
  8
0
 10
44.3012
 20
181.684
 11
45.1301
 21
182.053
  0
LINE
  8
0
 10
45.1301
 20
182.053
 11
45.9828
 21
182.364
  0
LINE
  8
0
 10
45.9828
 20
182.364
 11
46.855
 21
182.614
  0
LINE
  8
0
 10
46.855
 20
182.614
 11
47.7426
 21
182.803
  0
LINE
  8
0
 10
47.7426
 20
182.803
 11
48.6411
 21
182.929
  0
LINE
  8
0
 10
48.6411
 20
182.929
 11
49.5463
 21
182.992
  0
LINE
  8
0
 10
49.5463
 20
182.992
 11
50.4537
 21
182.992
  0
LINE
  8
0
 10
50.4537
 20
182.992
 11
51.3589
 21
182.929
  0
LINE
  8
0
 10
51.3589
 20
182.929
 11
52.2574
 21
182.803
  0
LINE
  8
0
 10
52.2574
 20
182.803
 11
53.145
 21
182.614
  0
LINE
  8
0
 10
53.145
 20
182.614
 11
54.0172
 21
182.364
  0
LINE
  8
0
 10
54.0172
 20
182.364
 11
54.8699
 21
182.053
  0
LINE
  8
0
 10
54.8699
 20
182.053
 11
55.6988
 21
181.684
  0
LINE
  8
0
 10
55.6988
 20
181.684
 11
56.5
 21
181.258
  0
LINE
  8
0
 10
56.5
 20
181.258
 11
57.2695
 21
180.777
  0
LINE
  8
0
 10
57.2695
 20
180.777
 11
58.0036
 21
180.244
  0
LINE
  8
0
 10
58.0036
 20
180.244
 11
58.6987
 21
179.661
  0
LINE
  8
0
 10
58.6987
 20
179.661
 11
59.3514
 21
179.031
  0
LINE
  8
0
 10
59.3514
 20
179.031
 11
59.9586
 21
178.356
  0
LINE
  8
0
 10
59.9586
 20
178.356
 11
60.5172
 21
177.641
  0
LINE
  8
0
 10
60.5172
 20
177.641
 11
61.0246
 21
176.889
  0
LINE
  8
0
 10
61.0246
 20
176.889
 11
61.4783
 21
176.103
  0
LINE
  8
0
 10
61.4783
 20
176.103
 11
61.8761
 21
175.288
  0
LINE
  8
0
 10
61.8761
 20
175.288
 11
62.216
 21
174.446
  0
LINE
  8
0
 10
62.216
 20
174.446
 11
62.4964
 21
173.583
  0
LINE
  8
0
 10
62.4964
 20
173.583
 11
62.7159
 21
172.703
  0
LINE
  8
0
 10
62.7159
 20
172.703
 11
62.8735
 21
171.809
  0
LINE
  8
0
 10
62.8735
 20
171.809
 11
62.9683
 21
170.907
  0
LINE
  8
0
 10
62.9683
 20
170.907
 11
63
 21
170
  0
LINE
  8
0
 10
63
 20
170
 11
62.9683
 21
169.093
  0
LINE
  8
0
 10
62.9683
 20
169.093
 11
62.8735
 21
168.191
  0
LINE
  8
0
 10
62.8735
 20
168.191
 11
62.7159
 21
167.297
  0
LINE
  8
0
 10
62.7159
 20
167.297
 11
62.4964
 21
166.417
  0
LINE
  8
0
 10
62.4964
 20
166.417
 11
62.216
 21
165.554
  0
LINE
  8
0
 10
62.216
 20
165.554
 11
61.8761
 21
164.712
  0
LINE
  8
0
 10
61.8761
 20
164.712
 11
61.4783
 21
163.897
  0
LINE
  8
0
 10
61.4783
 20
163.897
 11
61.0246
 21
163.111
  0
LINE
  8
0
 10
61.0246
 20
163.111
 11
60.5172
 21
162.359
  0
LINE
  8
0
 10
60.5172
 20
162.359
 11
59.9586
 21
161.644
  0
LINE
  8
0
 10
59.9586
 20
161.644
 11
59.3514
 21
160.969
  0
LINE
  8
0
 10
59.3514
 20
160.969
 11
58.6987
 21
160.339
  0
LINE
  8
0
 10
58.6987
 20
160.339
 11
58.0036
 21
159.756
  0
LINE
  8
0
 10
58.0036
 20
159.756
 11
57.2695
 21
159.223
  0
LINE
  8
0
 10
57.2695
 20
159.223
 11
56.5
 21
158.742
  0
LINE
  8
0
 10
56.5
 20
158.742
 11
55.6988
 21
158.316
  0
LINE
  8
0
 10
55.6988
 20
158.316
 11
54.8699
 21
157.947
  0
LINE
  8
0
 10
54.8699
 20
157.947
 11
54.0172
 21
157.636
  0
LINE
  8
0
 10
54.0172
 20
157.636
 11
53.145
 21
157.386
  0
LINE
  8
0
 10
53.145
 20
157.386
 11
52.2574
 21
157.197
  0
LINE
  8
0
 10
52.2574
 20
157.197
 11
51.3589
 21
157.071
  0
LINE
  8
0
 10
51.3589
 20
157.071
 11
50.4537
 21
157.008
  0
LINE
  8
0
 10
50.4537
 20
157.008
 11
49.5463
 21
157.008
  0
LINE
  8
0
 10
49.5463
 20
157.008
 11
48.6411
 21
157.071
  0
LINE
  8
0
 10
48.6411
 20
157.071
 11
47.7426
 21
157.197
  0
LINE
  8
0
 10
47.7426
 20
157.197
 11
46.855
 21
157.386
  0
LINE
  8
0
 10
46.855
 20
157.386
 11
45.9828
 21
157.636
  0
LINE
  8
0
 10
45.9828
 20
157.636
 11
45.1301
 21
157.947
  0
LINE
  8
0
 10
45.1301
 20
157.947
 11
44.3012
 21
158.316
  0
LINE
  8
0
 10
44.3012
 20
158.316
 11
43.5
 21
158.742
  0
LINE
  8
0
 10
43.5
 20
158.742
 11
42.7305
 21
159.223
  0
LINE
  8
0
 10
42.7305
 20
159.223
 11
41.9964
 21
159.756
  0
LINE
  8
0
 10
41.9964
 20
159.756
 11
41.6378
 21
160.057
  0
LINE
  8
0
 10
41.6378
 20
160.057
 11
41.3013
 21
160.339
  0
LINE
  8
0
 10
41.3013
 20
160.339
 11
40.6486
 21
160.969
  0
LINE
  8
0
 10
40.6486
 20
160.969
 11
40.0414
 21
161.644
  0
LINE
  8
0
 10
40.0414
 20
161.644
 11
39.4828
 21
162.359
  0
LINE
  8
0
 10
39.4828
 20
162.359
 11
38.9754
 21
163.111
  0
LINE
  8
0
 10
38.9754
 20
163.111
 11
38.5217
 21
163.897
  0
LINE
  8
0
 10
38.5217
 20
163.897
 11
38.4115
 21
164.123
  0
LINE
  8
0
 10
38.4115
 20
164.123
 11
38.1239
 21
164.712
  0
LINE
  8
0
 10
38.1239
 20
164.712
 11
37.784
 21
165.554
  0
LINE
  8
0
 10
37.784
 20
165.554
 11
37.5036
 21
166.417
  0
LINE
  8
0
 10
37.5036
 20
166.417
 11
37.2841
 21
167.297
  0
LINE
  8
0
 10
37.2841
 20
167.297
 11
37.1265
 21
168.191
  0
LINE
  8
0
 10
37.1265
 20
168.191
 11
37.0317
 21
169.093
  0
LINE
  8
0
 10
37.0317
 20
169.093
 11
37
 21
170
  0
ENDSEC
  0
SECTION
  2
OBJECTS
  0
DICTIONARY
  0
ENDSEC
  0
EOF
